<svg width="51.000000" height="36.000000" viewBox="0 0 51 36" fill="none" xmlns="http://www.w3.org/2000/svg" xmlns:xlink="http://www.w3.org/1999/xlink">
	<desc>
			Created with Pixso.
	</desc>
	<defs>
		<clipPath id="clip4492_2245">
			<rect id="logo" width="51.000000" height="36.000000" fill="white" fill-opacity="0"/>
		</clipPath>
	</defs>
	<rect id="logo" width="51.000000" height="36.000000" fill="#FFFFFF" fill-opacity="0"/>
	<g clip-path="url(#clip4492_2245)">
		<path id="Vector" d="M13.3301 1.28027C13.3303 1.11963 13.2954 0.960449 13.2278 0.814453C13.1604 0.668945 13.062 0.539551 12.9397 0.436523C12.6953 0.205078 12.3718 0.078125 12.0366 0.081543C11.8037 0.0776367 11.5747 0.140625 11.3757 0.263184C11.1562 0.404297 10.9895 0.614746 10.9021 0.862305L6.73779 10.2114L2.56323 0.84375C2.47192 0.61084 2.31104 0.412598 2.10303 0.275879C1.89526 0.139648 1.65039 0.0712891 1.40259 0.081543C1.04761 0.0795898 0.703613 0.205566 0.431885 0.436523C0.296387 0.538086 0.186523 0.67041 0.111572 0.823242C0.036377 0.975586 -0.00195312 1.14404 -0.000244141 1.31445C-0.00170898 1.48193 0.0349121 1.64746 0.106445 1.79834L5.31177 12.9771L3.45337 16.9839C3.37524 17.1553 3.32935 17.3398 3.31812 17.5283C3.31567 17.686 3.3501 17.8423 3.41846 17.9844C3.48657 18.126 3.58691 18.25 3.71118 18.3457C3.95581 18.5557 4.26709 18.6694 4.58813 18.6665C4.82373 18.6655 5.05371 18.5942 5.24927 18.4614C5.46265 18.3198 5.62866 18.1162 5.72559 17.8779L13.2234 1.79834C13.2944 1.63525 13.3308 1.4585 13.3301 1.28027Z" fill="#2963A3" fill-opacity="1.000000" fill-rule="nonzero"/>
		<path id="Vector" d="M39.5071 12.5117C39.4993 12.6807 39.5264 12.8491 39.5869 13.0068C39.6472 13.1646 39.7397 13.3076 39.8584 13.4268C39.9819 13.5415 40.1267 13.6309 40.2844 13.689C40.4419 13.7471 40.6094 13.7734 40.7771 13.7661C41.1428 13.7817 41.5002 13.6538 41.7739 13.4082C41.9001 13.2915 42 13.1484 42.0669 12.9893C42.1338 12.8301 42.1663 12.6582 42.1619 12.4854L42.1619 1.39062C42.1709 1.21094 42.1431 1.03076 42.0803 0.862305C42.0178 0.693359 41.9214 0.539551 41.7974 0.410156C41.5164 0.179199 41.1646 0.0541992 40.8022 0.0566406C40.4399 0.059082 40.0898 0.188965 39.8115 0.42334C39.6855 0.549316 39.5869 0.700195 39.522 0.866699C39.457 1.03369 39.4272 1.21191 39.4343 1.39062L39.4343 7.79785C39.4343 8.94043 39.115 9.8584 38.4766 10.5503C38.1492 10.897 37.7522 11.1689 37.3123 11.3477C36.8723 11.5264 36.3997 11.6074 35.926 11.5864C35.0291 11.5864 34.3635 11.332 33.9299 10.8237C33.4961 10.3154 33.28 9.52686 33.2817 8.45801L33.2817 1.39062C33.2908 1.21094 33.2632 1.03076 33.2004 0.862305C33.1377 0.693359 33.0415 0.539551 32.9175 0.410156C32.7839 0.287109 32.6274 0.192383 32.457 0.131348C32.2869 0.0708008 32.1062 0.0444336 31.9258 0.0551758C31.7422 0.0444336 31.5583 0.0698242 31.3845 0.130859C31.2109 0.191895 31.0508 0.286621 30.9133 0.410156C30.7883 0.538574 30.6912 0.692383 30.6284 0.861328C30.5657 1.03027 30.5386 1.21094 30.5491 1.39062L30.5491 8.48926C30.5491 12.0508 32.1506 13.8315 35.3535 13.8315C36.2041 13.8433 37.0442 13.6372 37.7947 13.2324C38.5229 12.833 39.1187 12.2256 39.5071 11.4863L39.5071 12.5117Z" fill="#2963A3" fill-opacity="1.000000" fill-rule="nonzero"/>
		<path id="Vector" d="M15.355 33.8916L14.5977 33.8364C13.8794 33.7822 13.3442 33.5552 12.9919 33.1553C12.6433 32.7559 12.4714 32.1274 12.4714 31.2729L12.4714 24.6768L15.1338 24.6768C15.4482 24.7007 15.7605 24.6069 16.011 24.4136C16.1172 24.3135 16.2 24.1909 16.2537 24.0547C16.3071 23.9185 16.3301 23.7715 16.3206 23.625C16.3289 23.479 16.3057 23.3325 16.252 23.1963C16.1985 23.0601 16.1162 22.937 16.011 22.8364C15.7646 22.6328 15.4514 22.5303 15.1338 22.5498L12.4609 22.5498L12.4609 19.7417C12.4712 19.5605 12.4426 19.3794 12.3777 19.2104C12.3125 19.041 12.2124 18.8882 12.0837 18.7612C11.8093 18.5151 11.4507 18.3872 11.0842 18.4038C10.9053 18.394 10.7261 18.4209 10.5571 18.4814C10.3884 18.5425 10.2332 18.6367 10.1006 18.7588C9.97534 18.8872 9.87817 19.041 9.81543 19.21C9.75269 19.3789 9.72559 19.5591 9.73608 19.7393L9.73608 22.5498L8.11743 22.5498C7.79956 22.5298 7.48633 22.6323 7.24023 22.8364C7.13403 22.9365 7.05103 23.0591 6.99707 23.1953C6.94312 23.332 6.91943 23.4785 6.92798 23.625C6.92798 24.3262 7.32446 24.6768 8.11743 24.6768L9.73608 24.6768L9.73608 31.084C9.73608 32.627 10.0952 33.7969 10.8162 34.5859C11.5371 35.3745 12.6223 35.8267 14.0798 35.937L14.8086 35.9897C15.2322 36.0513 15.6638 35.9702 16.0369 35.7583C16.1721 35.6685 16.282 35.5449 16.3555 35.3989C16.429 35.2534 16.4636 35.0908 16.4561 34.9277C16.4634 34.7954 16.4441 34.6631 16.3994 34.5391C16.3547 34.4146 16.2854 34.3008 16.1958 34.2046C15.959 34.0063 15.6624 33.896 15.355 33.8916Z" fill="#2963A3" fill-opacity="1.000000" fill-rule="nonzero"/>
		<path id="Vector" d="M36.0117 16.4976C35.6533 16.4854 35.3032 16.6069 35.0281 16.8394C34.8938 16.9653 34.7893 17.1196 34.7217 17.2915C34.6541 17.4639 34.6255 17.6484 34.6377 17.833L34.6377 34.6831C34.6245 34.8657 34.6528 35.0488 34.7207 35.2188C34.7883 35.3887 34.8933 35.541 35.0281 35.6636C35.3066 35.8877 35.6558 36.0034 36.0117 35.9897C36.3647 36.0049 36.7112 35.8887 36.9851 35.6636C37.116 35.5386 37.2175 35.3857 37.2827 35.2163C37.3481 35.0464 37.3752 34.8643 37.3625 34.6831L37.3625 17.833C37.3745 17.6499 37.3469 17.4658 37.282 17.2944C37.2168 17.123 37.1155 16.9678 36.9851 16.8394C36.7146 16.606 36.3672 16.4839 36.0117 16.4976Z" fill="#2963A3" fill-opacity="1.000000" fill-rule="nonzero"/>
		<path id="Vector" d="M50.5132 33.6997L45.2246 28.9829L50.0291 24.54C50.1682 24.4229 50.2815 24.2773 50.3608 24.1128C50.4402 23.9482 50.4841 23.7686 50.4897 23.5854C50.4812 23.2485 50.3445 22.9272 50.1082 22.689C49.8716 22.4507 49.5535 22.3135 49.2197 22.3052C48.8833 22.3271 48.5664 22.4731 48.3296 22.7153L42.177 28.5205L42.177 17.833C42.1897 17.6499 42.1624 17.4658 42.0972 17.2939C42.032 17.1226 41.9304 16.9673 41.7998 16.8394C41.5303 16.606 41.1836 16.4839 40.8289 16.4976C40.4697 16.4854 40.1187 16.6069 39.8425 16.8394C39.7085 16.9653 39.6038 17.1196 39.5364 17.292C39.4688 17.4639 39.4399 17.6484 39.4521 17.833L39.4521 34.6592C39.4399 34.8442 39.4688 35.0298 39.5361 35.2021C39.6038 35.3745 39.7085 35.5293 39.8425 35.6558C40.1191 35.8872 40.4702 36.0078 40.8289 35.9951C41.1833 36.0093 41.53 35.8882 41.7998 35.6558C41.9307 35.5273 42.032 35.3716 42.0972 35.1997C42.1624 35.0273 42.1897 34.8433 42.177 34.6592L42.177 29.6113L48.897 35.6084C49.1414 35.853 49.4717 35.9902 49.8157 35.9897C49.9739 35.9902 50.1304 35.957 50.2744 35.8911C50.4187 35.8252 50.5471 35.729 50.6511 35.6084C50.8843 35.3667 51.0134 35.0415 51.0103 34.7041C51.0095 34.5093 50.9644 34.3174 50.8782 34.1431C50.7917 33.9688 50.667 33.8169 50.5132 33.6997Z" fill="#2963A3" fill-opacity="1.000000" fill-rule="nonzero"/>
		<path id="Vector" d="M15.3342 13.8213L22.3301 13.8213C23.5217 13.8472 24.6995 13.5562 25.7446 12.9775C26.719 12.417 27.5076 11.5781 28.0115 10.5664C28.5603 9.43408 28.8325 8.18555 28.8052 6.92529C28.8357 5.65674 28.5635 4.3999 28.0115 3.26025C27.5093 2.24609 26.7202 1.40527 25.7446 0.844238C24.6995 0.265137 23.5217 -0.0258789 22.3301 0L20.1204 0C18.9294 -0.0258789 17.7527 0.265137 16.7085 0.844238C15.7317 1.40332 14.9424 2.24463 14.4417 3.26025C13.8887 4.39941 13.6157 5.65674 13.6453 6.92529L13.6453 10.7793C13.6453 13.001 14.2075 13.8213 15.3342 13.8213ZM17.3696 3.41797C18.0183 2.61182 18.9353 2.2085 20.1204 2.2085L22.3301 2.2085C23.5168 2.2085 24.4346 2.61328 25.0835 3.42334C25.7324 4.23291 26.0562 5.40039 26.0542 6.92529C26.0542 8.46924 25.7351 9.64111 25.0967 10.4404C24.458 11.2393 23.5359 11.6401 22.3301 11.6416L16.4299 11.6416C16.4299 11.6416 16.3962 8.46826 16.3962 6.92529C16.3962 5.38184 16.7214 4.23047 17.3696 3.41797Z" fill="#2963A3" fill-opacity="1.000000" fill-rule="nonzero"/>
		<path id="Vector" d="M29.6094 23.0229C28.5657 22.4424 27.3887 22.1504 26.1975 22.1763L23.9878 22.1763C22.7959 22.1514 21.6184 22.4434 20.5732 23.0229C19.5977 23.583 18.8086 24.4229 18.3064 25.4365C17.7605 26.5776 17.4927 27.8345 17.5256 29.1016C17.4954 30.3608 17.7629 31.6089 18.3064 32.7427C18.8096 33.7549 19.5984 34.5942 20.5732 35.1538C21.6187 35.7324 22.7961 36.0234 23.9878 35.9976L30.9836 35.9976C32.113 35.9976 32.6726 35.1772 32.6726 32.9478L32.6726 29.1016C32.7029 27.833 32.4297 26.5757 31.8762 25.4365C31.3755 24.4219 30.5862 23.5815 29.6094 23.0229ZM29.8879 33.8179L23.9878 33.8179C22.7854 33.8179 21.8633 33.4185 21.2214 32.6191C20.5793 31.8198 20.261 30.6475 20.2661 29.1016C20.2661 27.5732 20.5898 26.4058 21.2368 25.5996C21.884 24.7935 22.801 24.3882 23.9878 24.3848L26.1975 24.3848C27.3843 24.3848 28.302 24.7896 28.9509 25.5996C29.5999 26.4092 29.926 27.5767 29.9294 29.1016C29.9294 30.6445 29.8879 33.8179 29.8879 33.8179Z" fill="#2963A3" fill-opacity="1.000000" fill-rule="nonzero"/>
	</g>
</svg>
